<?xml version="1.0" encoding="UTF-8" standalone="no"?>
<svg
   height="48"
   viewBox="0 96 960 960"
   width="48"
   version="1.1"
   id="svg134"
   sodipodi:docname="album_FILL0_wght400_GRAD0_opsz48.svg"
   inkscape:version="1.2.2 (b0a84865, 2022-12-01)"
   xmlns:inkscape="http://www.inkscape.org/namespaces/inkscape"
   xmlns:sodipodi="http://sodipodi.sourceforge.net/DTD/sodipodi-0.dtd"
   xmlns="http://www.w3.org/2000/svg"
   xmlns:svg="http://www.w3.org/2000/svg">
  <defs
     id="defs138" />
  <sodipodi:namedview
     id="namedview136"
     pagecolor="#ffffff"
     bordercolor="#000000"
     borderopacity="0.25"
     inkscape:showpageshadow="2"
     inkscape:pageopacity="0.0"
     inkscape:pagecheckerboard="0"
     inkscape:deskcolor="#d1d1d1"
     showgrid="false"
     inkscape:zoom="15.75"
     inkscape:cx="24"
     inkscape:cy="24.031746"
     inkscape:window-width="1250"
     inkscape:window-height="847"
     inkscape:window-x="1952"
     inkscape:window-y="68"
     inkscape:window-maximized="0"
     inkscape:current-layer="svg134" />
  <path
     d="M480 740q70 0 120-47.5T650 576q0-71-49.5-120.5T480 406q-69 0-116.5 50T316 576q0 69 47.5 116.5T480 740Zm0-124q-17 0-28.5-11.5T440 576q0-17 11.5-28.5T480 536q17 0 28.5 11.5T520 576q0 17-11.5 28.5T480 616Zm0 360q-82 0-155-31.5t-127.5-86Q143 804 111.5 731T80 576q0-83 31.5-156t86-127Q252 239 325 207.5T480 176q83 0 156 31.5T763 293q54 54 85.5 127T880 576q0 82-31.5 155T763 858.5q-54 54.5-127 86T480 976Zm0-60q142 0 241-99.5T820 576q0-142-99-241t-241-99q-141 0-240.5 99T140 576q0 141 99.5 240.5T480 916Zm0-340Z"
     id="path132"
     style="fill:#ffffff" />
</svg>
