<?xml version="1.0" encoding="UTF-8" standalone="no"?>
<svg
   height="48"
   viewBox="0 96 960 960"
   width="48"
   version="1.1"
   id="svg384"
   sodipodi:docname="music_note_FILL0_wght400_GRAD0_opsz48.svg"
   inkscape:version="1.2.2 (b0a84865, 2022-12-01)"
   xmlns:inkscape="http://www.inkscape.org/namespaces/inkscape"
   xmlns:sodipodi="http://sodipodi.sourceforge.net/DTD/sodipodi-0.dtd"
   xmlns="http://www.w3.org/2000/svg"
   xmlns:svg="http://www.w3.org/2000/svg">
  <defs
     id="defs388" />
  <sodipodi:namedview
     id="namedview386"
     pagecolor="#d2d2d2"
     bordercolor="#000000"
     borderopacity="0.25"
     inkscape:showpageshadow="2"
     inkscape:pageopacity="0"
     inkscape:pagecheckerboard="0"
     inkscape:deskcolor="#d1d1d1"
     showgrid="false"
     inkscape:zoom="15.75"
     inkscape:cx="24.634921"
     inkscape:cy="24.47619"
     inkscape:window-width="2078"
     inkscape:window-height="1177"
     inkscape:window-x="1949"
     inkscape:window-y="57"
     inkscape:window-maximized="0"
     inkscape:current-layer="svg384" />
  <path
     d="m 519.40547,830.60318 q -54.22363,0 -91.66376,-37.44012 -37.44012,-37.44013 -37.44012,-91.66376 0,-54.22363 37.44012,-91.66375 37.44013,-37.44012 91.66376,-37.44012 24.09939,0 43.46497,6.88554 19.36558,6.88554 33.99735,18.93523 V 210.90457 H 798.26982 V 327.09806 H 648.50934 V 701.4993 q 0,54.22363 -37.44012,91.66376 -37.44012,37.44012 -91.66375,37.44012 z"
     id="path382-2"
     style="fill:#ffffff;stroke:none;stroke-width:17.2139;stroke-dasharray:none" />
  <path
     d="m 224.80231,893.46835 q -54.22363,0 -91.66376,-37.44012 -37.440125,-37.44013 -37.440125,-91.66376 0,-54.22363 37.440125,-91.66375 37.44013,-37.44012 91.66376,-37.44012 24.09939,0 43.46497,6.88554 19.36558,6.88554 33.99735,18.93523 V 273.76974 H 503.66666 V 389.96323 H 353.90618 v 374.40124 q 0,54.22363 -37.44012,91.66376 -37.44012,37.44012 -91.66375,37.44012 z"
     id="path382-2-3"
     style="fill:#ffffff;stroke:none;stroke-width:17.2139;stroke-dasharray:none" />
</svg>
