<?xml version="1.0" encoding="UTF-8" standalone="no"?>
<svg
   height="48"
   viewBox="0 96 960 960"
   width="48"
   version="1.1"
   id="svg134"
   sodipodi:docname="add_circle_FILL0_wght400_GRAD0_opsz48.svg"
   inkscape:version="1.2.2 (b0a84865, 2022-12-01)"
   xmlns:inkscape="http://www.inkscape.org/namespaces/inkscape"
   xmlns:sodipodi="http://sodipodi.sourceforge.net/DTD/sodipodi-0.dtd"
   xmlns="http://www.w3.org/2000/svg"
   xmlns:svg="http://www.w3.org/2000/svg">
  <defs
     id="defs138" />
  <sodipodi:namedview
     id="namedview136"
     pagecolor="#ffffff"
     bordercolor="#000000"
     borderopacity="0.25"
     inkscape:showpageshadow="2"
     inkscape:pageopacity="0.0"
     inkscape:pagecheckerboard="0"
     inkscape:deskcolor="#d1d1d1"
     showgrid="false"
     inkscape:zoom="15.75"
     inkscape:cx="24"
     inkscape:cy="24.031746"
     inkscape:window-width="1250"
     inkscape:window-height="847"
     inkscape:window-x="0"
     inkscape:window-y="25"
     inkscape:window-maximized="0"
     inkscape:current-layer="svg134" />
  <path
     d="M453 776h60V610h167v-60H513V376h-60v174H280v60h173v166Zm27.266 200q-82.734 0-155.5-31.5t-127.266-86q-54.5-54.5-86-127.341Q80 658.319 80 575.5q0-82.819 31.5-155.659Q143 347 197.5 293t127.341-85.5Q397.681 176 480.5 176q82.819 0 155.659 31.5Q709 239 763 293t85.5 127Q880 493 880 575.734q0 82.734-31.5 155.5T763 858.316q-54 54.316-127 86Q563 976 480.266 976Zm.234-60Q622 916 721 816.5t99-241Q820 434 721.188 335 622.375 236 480 236q-141 0-240.5 98.812Q140 433.625 140 576q0 141 99.5 240.5t241 99.5Zm-.5-340Z"
     id="path132"
     style="fill:#ffffff" />
</svg>
