<?xml version="1.0" encoding="UTF-8" standalone="no"?>
<svg
   height="48"
   viewBox="0 96 960 960"
   width="48"
   version="1.1"
   id="svg259"
   sodipodi:docname="group_FILL0_wght400_GRAD0_opsz48.svg"
   inkscape:version="1.2.2 (b0a84865, 2022-12-01)"
   xmlns:inkscape="http://www.inkscape.org/namespaces/inkscape"
   xmlns:sodipodi="http://sodipodi.sourceforge.net/DTD/sodipodi-0.dtd"
   xmlns="http://www.w3.org/2000/svg"
   xmlns:svg="http://www.w3.org/2000/svg">
  <defs
     id="defs263" />
  <sodipodi:namedview
     id="namedview261"
     pagecolor="#ffffff"
     bordercolor="#000000"
     borderopacity="0.25"
     inkscape:showpageshadow="2"
     inkscape:pageopacity="0.0"
     inkscape:pagecheckerboard="0"
     inkscape:deskcolor="#d1d1d1"
     showgrid="false"
     inkscape:zoom="15.75"
     inkscape:cx="24"
     inkscape:cy="24.031746"
     inkscape:window-width="1250"
     inkscape:window-height="847"
     inkscape:window-x="2009"
     inkscape:window-y="208"
     inkscape:window-maximized="0"
     inkscape:current-layer="svg259" />
  <path
     d="M38 896v-94q0-35 18-63.5t50-42.5q73-32 131.5-46T358 636q62 0 120 14t131 46q32 14 50.5 42.5T678 802v94H38Zm700 0v-94q0-63-32-103.5T622 633q69 8 130 23.5t99 35.5q33 19 52 47t19 63v94H738ZM358 575q-66 0-108-42t-42-108q0-66 42-108t108-42q66 0 108 42t42 108q0 66-42 108t-108 42Zm360-150q0 66-42 108t-108 42q-11 0-24.5-1.5T519 568q24-25 36.5-61.5T568 425q0-45-12.5-79.5T519 282q11-3 24.5-5t24.5-2q66 0 108 42t42 108ZM98 836h520v-34q0-16-9.5-31T585 750q-72-32-121-43t-106-11q-57 0-106.5 11T130 750q-14 6-23 21t-9 31v34Zm260-321q39 0 64.5-25.5T448 425q0-39-25.5-64.5T358 335q-39 0-64.5 25.5T268 425q0 39 25.5 64.5T358 515Zm0 321Zm0-411Z"
     id="path257"
     style="fill:#ffffff" />
</svg>
